<svg width="24" height="23" viewBox="0 0 24 23" fill="none" xmlns="http://www.w3.org/2000/svg">
<path d="M17 0C18.6576 0 20.2473 0.652153 21.4194 1.81299C22.5915 2.97383 23.25 4.54827 23.25 6.18994V16.0939C23.25 17.7355 22.5915 19.31 21.4194 20.4708C20.2473 21.6316 18.6576 22.2838 17 22.2838H7C5.3424 22.2838 3.75269 21.6316 2.58058 20.4708C1.40848 19.31 0.75 17.7355 0.75 16.0939V6.18994C0.75 4.54827 1.40848 2.97383 2.58058 1.81299C3.75269 0.652153 5.3424 0 7 0H17ZM12 6.18994C10.6739 6.18994 9.40215 6.71167 8.46447 7.64034C7.52678 8.56901 7 9.82856 7 11.1419C7 12.4552 7.52678 13.7148 8.46447 14.6435C9.40215 15.5721 10.6739 16.0939 12 16.0939C13.3261 16.0939 14.5979 15.5721 15.5355 14.6435C16.4732 13.7148 17 12.4552 17 11.1419C17 9.82856 16.4732 8.56901 15.5355 7.64034C14.5979 6.71167 13.3261 6.18994 12 6.18994ZM12 8.66592C12.663 8.66592 13.2989 8.92678 13.7678 9.39112C14.2366 9.85546 14.5 10.4852 14.5 11.1419C14.5 11.7986 14.2366 12.4283 13.7678 12.8927C13.2989 13.357 12.663 13.6179 12 13.6179C11.337 13.6179 10.7011 13.357 10.2322 12.8927C9.76339 12.4283 9.5 11.7986 9.5 11.1419C9.5 10.4852 9.76339 9.85546 10.2322 9.39112C10.7011 8.92678 11.337 8.66592 12 8.66592ZM17.625 4.33296C17.2935 4.33296 16.9755 4.46339 16.7411 4.69556C16.5067 4.92773 16.375 5.24262 16.375 5.57095C16.375 5.89929 16.5067 6.21417 16.7411 6.44634C16.9755 6.67851 17.2935 6.80894 17.625 6.80894C17.9565 6.80894 18.2745 6.67851 18.5089 6.44634C18.7433 6.21417 18.875 5.89929 18.875 5.57095C18.875 5.24262 18.7433 4.92773 18.5089 4.69556C18.2745 4.46339 17.9565 4.33296 17.625 4.33296Z" fill="#FF7F00"/>
</svg>
