<svg width="24" height="22" viewBox="0 0 24 22" fill="none" xmlns="http://www.w3.org/2000/svg">
<path fill-rule="evenodd" clip-rule="evenodd" d="M20 0C21.0609 0 22.0783 0.386309 22.8284 1.07394C23.5786 1.76158 24 2.69421 24 3.66667V18.3333C24 19.3058 23.5786 20.2384 22.8284 20.9261C22.0783 21.6137 21.0609 22 20 22H4C2.93913 22 1.92172 21.6137 1.17157 20.9261C0.421427 20.2384 0 19.3058 0 18.3333V3.66667C0 2.69421 0.421427 1.76158 1.17157 1.07394C1.92172 0.386309 2.93913 0 4 0H20ZM6.66667 8.55556C6.31305 8.55556 5.97391 8.68433 5.72386 8.91354C5.47381 9.14275 5.33333 9.45362 5.33333 9.77778V15.8889C5.33333 16.213 5.47381 16.5239 5.72386 16.7531C5.97391 16.9823 6.31305 17.1111 6.66667 17.1111C7.02029 17.1111 7.35943 16.9823 7.60948 16.7531C7.85952 16.5239 8 16.213 8 15.8889V9.77778C8 9.45362 7.85952 9.14275 7.60948 8.91354C7.35943 8.68433 7.02029 8.55556 6.66667 8.55556ZM10.6667 7.33333C10.313 7.33333 9.97391 7.4621 9.72386 7.69131C9.47381 7.92053 9.33333 8.2314 9.33333 8.55556V15.8889C9.33333 16.213 9.47381 16.5239 9.72386 16.7531C9.97391 16.9823 10.313 17.1111 10.6667 17.1111C11.0203 17.1111 11.3594 16.9823 11.6095 16.7531C11.8595 16.5239 12 16.213 12 15.8889V11.4156C12.4067 10.9951 13.0933 10.5013 13.8573 10.2019C14.3013 10.0283 14.9693 9.95744 15.4333 10.0919C15.5873 10.1277 15.7244 10.2083 15.824 10.3217C15.8933 10.4072 16 10.5979 16 11V15.8889C16 16.213 16.1405 16.5239 16.3905 16.7531C16.6406 16.9823 16.9797 17.1111 17.3333 17.1111C17.687 17.1111 18.0261 16.9823 18.2761 16.7531C18.5262 16.5239 18.6667 16.213 18.6667 15.8889V11C18.6667 10.1811 18.44 9.45267 17.968 8.86844C17.5337 8.33868 16.9258 7.95022 16.2333 7.75989C15.0307 7.414 13.6987 7.60589 12.8093 7.95544C12.5246 8.0677 12.2473 8.19502 11.9787 8.33678C11.9228 8.05516 11.7608 7.80046 11.5211 7.61709C11.2813 7.43371 10.9789 7.33329 10.6667 7.33333ZM6.66667 4.88889C6.31305 4.88889 5.97391 5.01766 5.72386 5.24687C5.47381 5.47608 5.33333 5.78696 5.33333 6.11111C5.33333 6.43526 5.47381 6.74614 5.72386 6.97535C5.97391 7.20456 6.31305 7.33333 6.66667 7.33333C7.02029 7.33333 7.35943 7.20456 7.60948 6.97535C7.85952 6.74614 8 6.43526 8 6.11111C8 5.78696 7.85952 5.47608 7.60948 5.24687C7.35943 5.01766 7.02029 4.88889 6.66667 4.88889Z" fill="#FF7F00"/>
</svg>
