<svg width="22" height="22" viewBox="0 0 22 22" fill="none" xmlns="http://www.w3.org/2000/svg">
<path d="M13.7695 11.0098L9.12109 8.35313V13.6665L13.7695 11.0098ZM18.75 0H3.125C1.40137 0 0 1.40937 0 3.14286V18.8571C0 20.5906 1.40137 22 3.125 22H18.75C20.4736 22 21.875 20.5906 21.875 18.8571V3.14286C21.875 1.40937 20.4736 0 18.75 0ZM19.4531 6.68348C19.8242 8.08795 19.8242 11.0147 19.8242 11.0147C19.8242 11.0147 19.8242 13.9415 19.4531 15.3411C19.248 16.117 18.6475 16.7013 17.8809 16.9076C16.499 17.2857 10.9375 17.2857 10.9375 17.2857C10.9375 17.2857 5.37598 17.2857 3.99414 16.9125C3.22754 16.7062 2.62695 16.1219 2.42188 15.346C2.05078 13.9415 2.05078 11.0147 2.05078 11.0147C2.05078 11.0147 2.05078 8.08304 2.42188 6.68348C2.62695 5.90759 3.22754 5.29866 3.99414 5.09241C5.37598 4.71429 10.9375 4.71429 10.9375 4.71429C10.9375 4.71429 16.499 4.71429 17.8809 5.09241C18.6475 5.29866 19.248 5.90759 19.4531 6.68348Z" fill="#FF7F00"/>
</svg>
